<svg xmlns="http://www.w3.org/2000/svg" viewBox="0 0 256 256" role="img" aria-labelledby="title desc">
  <title id="title">WebRogue logo</title>
  <desc id="desc">A torchlit dungeon doorway framing the letters WR.</desc>
  <rect width="256" height="256" rx="32" fill="#17211d" />
  <path d="M48 208V92c0-28 22-50 50-50h60c28 0 50 22 50 50v116" fill="#31413b" />
  <path d="M76 208V98c0-15 12-27 27-27h50c15 0 27 12 27 27v110" fill="#0f1413" />
  <path d="M94 208v-50h68v50" fill="#b9563c" />
  <path d="M102 158c5-24 18-31 26-54 8 23 21 30 26 54-13-8-39-8-52 0Z" fill="#f2b84b" />
  <path d="M109 158c4-16 13-21 19-36 6 15 15 20 19 36-10-5-28-5-38 0Z" fill="#fff1a8" />
  <text x="128" y="225" text-anchor="middle" font-family="Verdana, sans-serif" font-size="40" font-weight="700" fill="#e8ded0">WR</text>
</svg>
